<svg xmlns="http://www.w3.org/2000/svg" width="24" height="24" viewBox="0 0 24 24" fill="none" stroke="#141414" stroke-width="2" stroke-linecap="round" stroke-linejoin="round">
  <path d="M12 5c.67 0 1.35.09 2 .26 1.78-2 5.03-2.84 6.42-2.26 4.74 1.98 3 10.13 2.36 10.7a2.45 2.45 0 0 1-1.49.9 11.22 11.22 0 0 1-4.29 1.14l-.54.04c-.37.03-.76.01-1.13.1a3.54 3.54 0 0 0-1.22.45 2.45 2.45 0 0 1-2.22 0 3.54 3.54 0 0 0-1.22-.45c-.37-.09-.76-.07-1.13-.1l-.54-.04A11.22 11.22 0 0 1 5.4 14.6a2.45 2.45 0 0 1-1.49-.9C3.27 13.13 1.53 4.98 6.27 3c1.39-.58 4.64.26 6.42 2.26.65-.17 1.33-.26 2-.26z"/>
  <path d="M16 9h.01"/>
  <path d="M8 9h.01"/>
  <path d="M12 11c0 1-2 1-2 1s-2 0-2-1"/>
</svg>
