<svg xmlns="http://www.w3.org/2000/svg" width="24" height="24" viewBox="0 0 24 24" fill="none" stroke="#141414" stroke-width="2" stroke-linecap="round" stroke-linejoin="round">
  <path d="M11.25 16.25h1.5L12 17z"/>
  <path d="M16 14v.5"/>
  <path d="M4.39 9.83a2 2 0 0 1 2.22-1.58l3.39.34a1 1 0 0 0 .74-.18l.82-.57a3 3 0 0 1 3.44 0l.82.57a1 1 0 0 0 .74.18l3.39-.34a2 2 0 0 1 2.22 1.58l.5 2.06a3 3 0 0 1-2.1 3.6l-2.73.58a1 1 0 0 0-.74.67 5.1 5.1 0 0 1-9.58 0 1 1 0 0 0-.74-.67l-2.73-.58a3 3 0 0 1-2.1-3.6z"/>
  <path d="M8 14v.5"/>
</svg>
