<?xml version="1.0" encoding="UTF-8" standalone="no"?>
<!DOCTYPE svg PUBLIC "-//W3C//DTD SVG 1.1//EN" "http://www.w3.org/Graphics/SVG/1.1/DTD/svg11.dtd">
<!-- Created with Vectornator (http://vectornator.io/) -->
<svg height="800.0px" stroke-miterlimit="10" style="fill-rule:nonzero;clip-rule:evenodd;stroke-linecap:round;stroke-linejoin:round;" version="1.1" viewBox="0 0 800 800" width="800.0px" xml:space="preserve" xmlns="http://www.w3.org/2000/svg" xmlns:xlink="http://www.w3.org/1999/xlink">
<defs>
<linearGradient gradientTransform="matrix(15.7821 1.55872 -4.09773 14.7278 409.333 191.552)" gradientUnits="userSpaceOnUse" id="LinearGradient" x1="0" x2="1" y1="0" y2="0">
<stop offset="0" stop-color="#fe8e43"/>
<stop offset="0.860417" stop-color="#7efb42"/>
</linearGradient>
<linearGradient gradientTransform="matrix(20.0686 4.48133 -10.4616 15.897 432.325 216.491)" gradientUnits="userSpaceOnUse" id="LinearGradient_2" x1="0" x2="1" y1="0" y2="0">
<stop offset="0" stop-color="#fe8e43"/>
<stop offset="0.860417" stop-color="#7efb42"/>
</linearGradient>
<linearGradient gradientTransform="matrix(17.146 -0.974203 2.49085 16.4797 375.041 196.812)" gradientUnits="userSpaceOnUse" id="LinearGradient_3" x1="0" x2="1" y1="0" y2="0">
<stop offset="0" stop-color="#fe8e43"/>
<stop offset="0.860417" stop-color="#7efb42"/>
</linearGradient>
<linearGradient gradientTransform="matrix(16.3666 -3.11745 6.85524 13.7601 348.933 220.583)" gradientUnits="userSpaceOnUse" id="LinearGradient_4" x1="0" x2="1" y1="0" y2="0">
<stop offset="0" stop-color="#fe8e43"/>
<stop offset="0.860417" stop-color="#7efb42"/>
</linearGradient>
<linearGradient gradientTransform="matrix(33.3177 0.779362 -0.779362 33.3177 384.199 245.523)" gradientUnits="userSpaceOnUse" id="LinearGradient_5" x1="0" x2="1" y1="0" y2="0">
<stop offset="0" stop-color="#fe8e43"/>
<stop offset="0.860417" stop-color="#7efb42"/>
</linearGradient>
</defs>
<path d="M0 0L800 0L800 800L0 800L0 0Z" fill="#ffffff" fill-rule="nonzero" opacity="1" stroke="none"/>
<g id="Слой-1">
<g fill="#ff7e27" opacity="1" stroke="none">
<path d="M196.725 603.958C197.522 604.005 198.296 604.029 199.046 604.029C206.335 604.029 211.21 601.368 213.671 596.048C214.186 594.923 214.444 593.868 214.444 592.884C214.444 591.243 213.729 589.779 212.299 588.49C208.971 585.513 205.104 584.025 200.698 584.025C199.151 584.025 197.546 584.212 195.882 584.587L196.303 594.255L196.725 603.958ZM186.389 562.298C184.655 560.283 183.788 558.525 183.788 557.025C183.788 556.415 183.928 555.853 184.21 555.337C184.796 554.236 185.71 553.533 186.952 553.228L188.639 553.017L190.432 553.052L212.686 554.142C214.397 554.259 215.967 554.622 217.397 555.232C219.999 556.31 221.499 557.904 221.897 560.013C221.944 560.247 221.967 560.47 221.967 560.681C221.967 561.478 221.663 562.193 221.053 562.826C220.397 563.482 219.635 563.81 218.768 563.81C218.604 563.81 218.428 563.798 218.241 563.775C209.616 562.556 202.409 561.947 196.62 561.947C195.753 561.947 194.921 561.958 194.124 561.982C194.592 566.365 195.096 570.947 195.635 575.728L202.104 575.728C208.081 575.728 213.46 577.826 218.241 582.021C221.757 585.091 223.514 588.607 223.514 592.568C223.514 594.607 223.034 596.775 222.073 599.072C220.128 603.759 216.694 607.439 211.772 610.111C207.858 612.243 203.803 613.31 199.608 613.31C198.53 613.31 197.428 613.24 196.303 613.099C193.842 612.771 191.428 612.161 189.061 611.271C186.366 610.263 185.018 608.482 185.018 605.927C185.018 605.74 185.03 605.552 185.053 605.365L186.319 603.888L187.796 602.13L187.092 582.197L186.389 562.298Z" fill="#99ed36"/>
<path d="M236.557 582.654L241.022 582.618L245.135 582.689C247.878 582.9 249.624 583.954 250.374 585.853C250.608 586.439 250.725 586.978 250.725 587.47C250.725 588.595 250.104 589.474 248.862 590.107C247.854 590.646 246.389 590.997 244.467 591.161L240.776 591.548L236.698 592.005C236.932 595.896 237.132 599.505 237.296 602.833L242.112 602.833L247.421 602.728L252.729 602.798C255.307 602.962 257.229 603.829 258.495 605.4C258.964 605.962 259.198 606.583 259.198 607.263C259.198 607.568 259.139 607.896 259.022 608.247C258.694 609.302 258.003 609.982 256.948 610.286C254.932 610.896 252.811 611.236 250.585 611.306L246.19 611.411L241.831 611.728C240.612 611.892 238.174 612.361 234.518 613.134C233.979 613.251 233.475 613.31 233.007 613.31C230.85 613.31 229.561 612.044 229.139 609.513L228.893 607.333C228.495 602.74 228.167 597.372 227.909 591.232L227.768 584.552L227.698 577.837L227.03 557.095L227.03 556.743C227.03 553.579 228.53 551.704 231.53 551.118C233.147 552.056 235.221 552.595 237.753 552.736L241.128 552.771L244.573 552.701L248.721 552.701L252.87 552.982C255.917 553.404 257.452 554.868 257.475 557.376C257.475 559.298 256.549 560.482 254.698 560.927C253.174 561.279 251.042 561.454 248.299 561.454C247.479 561.454 246.6 561.443 245.663 561.419L241.057 561.349C239.37 561.396 237.87 561.572 236.557 561.876L236.557 582.654Z" fill="#99ed36"/>
<path d="M304.479 596.892C304.878 596.634 305.253 596.505 305.604 596.505C306.307 596.505 306.835 597.126 307.186 598.368C307.374 598.978 307.467 599.576 307.467 600.161C307.467 601.919 306.706 603.689 305.182 605.47C300.706 610.697 295.491 613.31 289.538 613.31C287.171 613.31 284.686 612.9 282.085 612.079C276.272 610.251 271.479 606.572 267.706 601.04C264.237 595.954 262.503 590.622 262.503 585.044C262.503 584.576 262.514 584.095 262.538 583.603C263.03 574.65 266.1 567.033 271.749 560.751C274.092 558.15 276.753 556.134 279.729 554.704C282.096 553.579 284.393 553.017 286.62 553.017C290.112 553.017 293.393 554.435 296.464 557.271C298.339 558.982 299.862 560.564 301.034 562.017C302.206 563.493 302.792 564.818 302.792 565.99C302.792 566.997 302.346 567.888 301.456 568.661C300.799 569.224 300.073 569.505 299.276 569.505C298.081 569.505 296.733 568.837 295.233 567.501L292.983 565.392L290.733 563.283C289.397 562.111 287.979 561.525 286.479 561.525C285.354 561.525 284.182 561.865 282.964 562.544C280.995 563.669 279.589 564.701 278.745 565.638C273.612 571.31 271.046 577.544 271.046 584.341C271.046 585.349 271.104 586.38 271.221 587.435C271.807 592.802 274.456 597.384 279.167 601.181C282.378 603.783 285.553 605.083 288.694 605.083C291.389 605.083 294.061 604.122 296.71 602.201C299.475 600.185 301.397 598.814 302.475 598.087L303.495 597.49C304.151 597.115 304.479 596.915 304.479 596.892Z" fill="#99ed36"/>
<path d="M324.342 562.72L319.245 563.107C318.893 563.13 318.542 563.142 318.19 563.142C316.69 563.142 315.26 562.978 313.901 562.65C312.049 562.204 311.112 560.986 311.089 558.993C311.089 557.4 311.897 556.24 313.514 555.513C314.405 555.091 315.413 554.833 316.538 554.74L328.491 553.755L340.409 552.911L346.034 553.017L351.659 553.474C352.62 553.544 353.499 553.743 354.296 554.072C356.358 555.009 357.389 556.333 357.389 558.044C357.389 558.255 357.378 558.466 357.354 558.677C357.073 560.576 355.608 561.63 352.96 561.841L350.956 561.841L348.917 561.771L343.643 561.736L338.37 561.701L338.37 562.509L338.475 563.142L338.967 590.212L339.354 608.283L339.319 608.74C339.061 611.693 337.725 613.216 335.311 613.31L335.065 613.31C332.628 613.31 331.257 611.904 330.952 609.091L330.53 601.427L329.827 563.951L329.827 563.212L329.686 562.158L324.342 562.72Z" fill="#99ed36"/>
<path d="M400.702 588.701C400.96 585.396 401.089 581.751 401.089 577.767C401.089 576.431 401.077 575.06 401.053 573.654C400.913 568.005 400.585 564.372 400.069 562.755C393.952 566.622 389.85 571.087 387.764 576.15C387.132 577.72 386.815 579.138 386.815 580.404C386.815 583.568 388.784 585.806 392.721 587.118C393.706 587.447 394.983 587.74 396.553 587.997L400.702 588.701ZM409.702 587.611C416.1 586.275 420.999 584.458 424.397 582.161C426.53 580.732 427.596 578.857 427.596 576.536C427.596 575.693 427.456 574.79 427.174 573.829C424.924 566.189 419.757 562.368 411.671 562.368C410.85 562.368 410.007 562.404 409.139 562.474L409.21 568.661L409.139 574.884L409.139 575.728C409.139 580.462 409.327 584.423 409.702 587.611ZM410.089 608.107C409.995 611.576 408.659 613.31 406.081 613.31C403.409 613.31 402.014 611.599 401.897 608.177L401.827 602.868L401.862 597.279L399.19 596.927L396.835 596.54L393.354 595.908L389.979 595.064C385.409 593.493 382.116 590.763 380.1 586.872C378.975 584.693 378.413 582.454 378.413 580.158C378.413 578.259 378.788 576.326 379.538 574.357C383.686 563.341 391.092 556.415 401.757 553.579C403.327 553.158 404.874 552.947 406.397 552.947C408.507 552.947 410.569 553.357 412.585 554.177C413.546 554.552 414.811 554.81 416.382 554.951C424.327 555.56 429.987 559.392 433.362 566.447C435.167 570.22 436.069 573.654 436.069 576.747C436.069 582.982 432.413 587.857 425.1 591.372C423.647 592.052 421.819 592.755 419.616 593.482L413.956 595.31L412.198 595.802L410.089 596.365L410.089 608.107Z"/>
<path d="M450.659 588.63L452.171 588.806L454.913 589.052C455.264 589.076 455.616 589.087 455.967 589.087C460.608 589.087 464.487 587.751 467.604 585.079C469.924 583.087 471.132 580.732 471.225 578.013L471.225 577.697C471.225 575.072 470.159 572.775 468.026 570.806C463.784 566.892 458.874 563.997 453.296 562.122L451.081 561.56L449.815 561.314L448.339 560.997L448.339 574.814C448.339 580.204 448.538 584.74 448.936 588.419L450.659 588.63ZM449.921 597.665C449.827 598.626 449.78 599.728 449.78 600.97C449.78 601.603 449.792 602.259 449.815 602.939L449.991 608.107L449.991 608.247C449.991 610.263 449.546 611.622 448.655 612.326C447.788 612.982 446.885 613.31 445.948 613.31C445.479 613.31 444.999 613.228 444.507 613.064C443.03 612.572 442.104 611.552 441.729 610.005L441.624 609.372L441.378 607.79L441.202 606.208L440.639 594.642L440.042 583.076C439.831 578.06 439.725 573.466 439.725 569.294C439.725 565.872 439.796 562.732 439.936 559.872L440.007 558.536L440.112 557.165C440.604 554.306 443.241 552.876 448.022 552.876C449.007 552.876 450.096 552.935 451.292 553.052C454.221 553.38 456.928 554.095 459.413 555.197C465.202 557.775 470.077 560.927 474.038 564.654C477.952 568.38 479.909 572.74 479.909 577.732C479.909 578.388 479.874 579.056 479.803 579.736C479.217 585.595 476.335 590.165 471.155 593.447C466.678 596.306 461.757 597.736 456.389 597.736C455.991 597.736 455.581 597.724 455.159 597.701L452.663 597.665L449.921 597.665Z"/>
<path d="M492.741 582.654L497.206 582.618L501.319 582.689C504.061 582.9 505.807 583.954 506.557 585.853C506.792 586.439 506.909 586.978 506.909 587.47C506.909 588.595 506.288 589.474 505.046 590.107C504.038 590.646 502.573 590.997 500.651 591.161L496.96 591.548L492.882 592.005C493.116 595.896 493.315 599.505 493.479 602.833L498.296 602.833L503.604 602.728L508.913 602.798C511.491 602.962 513.413 603.829 514.678 605.4C515.147 605.962 515.382 606.583 515.382 607.263C515.382 607.568 515.323 607.896 515.206 608.247C514.878 609.302 514.186 609.982 513.132 610.286C511.116 610.896 508.995 611.236 506.768 611.306L502.374 611.411L498.014 611.728C496.796 611.892 494.358 612.361 490.702 613.134C490.163 613.251 489.659 613.31 489.19 613.31C487.034 613.31 485.745 612.044 485.323 609.513L485.077 607.333C484.678 602.74 484.35 597.372 484.092 591.232L483.952 584.552L483.882 577.837L483.214 557.095L483.214 556.743C483.214 553.579 484.714 551.704 487.714 551.118C489.331 552.056 491.405 552.595 493.936 552.736L497.311 552.771L500.757 552.701L504.905 552.701L509.053 552.982C512.1 553.404 513.635 554.868 513.659 557.376C513.659 559.298 512.733 560.482 510.882 560.927C509.358 561.279 507.225 561.454 504.483 561.454C503.663 561.454 502.784 561.443 501.846 561.419L497.241 561.349C495.553 561.396 494.053 561.572 492.741 561.876L492.741 582.654Z"/>
<path d="M526.983 586.521L544.948 586.521L544.948 580.896L544.174 561.63L544.174 560.822C544.174 559.486 544.268 558.15 544.456 556.814C544.714 555.173 545.698 554.236 547.409 554.001C547.62 553.978 547.831 553.966 548.042 553.966C549.401 553.966 550.35 554.681 550.889 556.111C551.546 557.939 551.967 559.779 552.155 561.63L552.507 566.868L552.753 572.142L554.827 606.279C554.874 606.888 554.897 607.439 554.897 607.931C554.897 608.658 554.85 609.279 554.757 609.794C554.335 612.068 553.022 613.24 550.819 613.31L550.643 613.31C548.581 613.31 547.327 612.173 546.882 609.9L546.565 607.298L546.389 604.697L546.143 600.478L545.967 596.048C543.507 595.181 540.612 594.736 537.284 594.712L532.854 594.818L528.319 595.064L528.706 599.599L529.022 603.747L529.128 605.927L528.952 608.107C528.6 610.099 527.405 611.201 525.366 611.411C525.202 611.435 525.038 611.447 524.874 611.447C523.257 611.447 522.085 610.509 521.358 608.634L520.971 607.158L520.725 605.646C519.647 599.036 519.003 591.326 518.792 582.513L518.686 570.876L518.721 559.275L518.862 556.216C519.167 554.341 520.21 553.263 521.991 552.982C522.249 552.935 522.495 552.911 522.729 552.911C524.229 552.911 525.26 553.697 525.823 555.267C526.479 557.025 526.831 558.724 526.878 560.365L526.948 570.876L526.983 586.521Z"/>
<path d="M575.007 561.419C574.913 562.099 574.866 563.201 574.866 564.724C574.866 568.286 575.112 574.111 575.604 582.197C576.284 593.775 576.87 600.337 577.362 601.884L583.549 602.201C584.065 602.224 584.557 602.236 585.026 602.236C586.807 602.236 588.436 602.13 589.913 601.919L589.913 596.927L589.632 589.509L589.385 582.091L589.35 574.04L589.35 565.954L589.21 564.056L588.964 562.087L581.932 561.736L575.007 561.419ZM602.112 619.99C600.12 619.591 599.007 618.525 598.772 616.79L598.667 615.595L598.561 614.259C598.444 613.181 598.186 612.232 597.788 611.411L590.194 610.814L582.46 610.357L574.866 610.251L567.167 610.286C566.745 614.482 566.475 616.697 566.358 616.931C565.749 618.22 564.729 618.911 563.299 619.005L562.983 619.005C561.694 619.005 560.733 618.431 560.1 617.283C559.749 616.603 559.514 615.736 559.397 614.681C558.905 610.204 558.659 607.38 558.659 606.208C558.659 606.021 558.671 605.88 558.694 605.786C558.788 605.013 559.069 604.345 559.538 603.783C560.428 602.751 561.846 602.165 563.792 602.025L566.253 601.884C567.19 601.79 567.987 601.615 568.643 601.357L567.87 588.841L566.323 562.263L566.499 558.326C566.827 554.669 568.69 552.841 572.089 552.841L572.335 552.841L582.354 553.228L592.374 553.755C594.788 553.872 596.288 555.22 596.874 557.798C597.225 559.298 597.424 561.173 597.471 563.423L598.174 596.576L598.421 599.564L598.878 602.658C600.589 602.775 602.37 602.892 604.221 603.009C606.049 603.853 606.964 605.4 606.964 607.65L606.964 614.997C606.917 617.974 605.299 619.638 602.112 619.99Z"/>
</g>
<path d="M217.012 290.029L582.988 290.029L582.988 540L217.012 540L217.012 290.029Z" fill="#141414" fill-rule="nonzero" opacity="1" stroke="none"/>
<path d="M400 128.804L512.376 209.492L616.247 283.6L400 283.6L183.753 283.6L291.876 206.202L400 128.804Z" fill="#131313" fill-rule="nonzero" opacity="1" stroke="none"/>
<g opacity="0.859615">
<path d="M403.464 189.29C405.515 178.999 413.678 171.953 421.696 173.551C429.715 175.15 434.551 184.788 432.5 195.079C430.448 205.37 422.285 212.416 414.267 210.818C406.249 209.219 401.412 199.581 403.464 189.29Z" fill="url(#LinearGradient)" fill-rule="nonzero" opacity="1" stroke="none"/>
<path d="M428.986 214.263C432.124 204.278 440.991 198.171 448.791 200.622C456.591 203.074 460.369 213.156 457.231 223.141C454.092 233.127 445.225 239.234 437.425 236.782C429.626 234.331 425.847 224.249 428.986 214.263Z" fill="url(#LinearGradient_2)" fill-rule="nonzero" opacity="1" stroke="none"/>
<path d="M368.866 196.241C366.687 185.865 371.407 176.091 379.408 174.411C387.41 172.731 395.662 179.781 397.841 190.157C400.02 200.534 395.3 210.307 387.298 211.987C379.297 213.667 371.044 206.618 368.866 196.241Z" fill="url(#LinearGradient_3)" fill-rule="nonzero" opacity="1" stroke="none"/>
<path d="M343 222.721C339.734 212.329 343.409 201.917 351.209 199.466C359.009 197.015 367.979 203.453 371.245 213.846C374.511 224.238 370.835 234.65 363.035 237.101C355.236 239.552 346.265 233.114 343 222.721Z" fill="url(#LinearGradient_4)" fill-rule="nonzero" opacity="1" stroke="none"/>
<path d="M381.584 226.609C381.838 226.464 379.221 230.09 378.732 230.874C376.953 233.728 374.455 237.259 374.455 237.259C374.455 237.259 361.8 252.669 368.882 264.54C371.685 269.239 376.449 271.072 381.584 271.118C385.395 271.151 389.751 269.466 393.12 267.819C394.784 267.005 399.368 264.993 401.26 265.427C412.644 268.04 421.537 277.344 431.854 266.429C435.463 262.612 437.827 257.674 434.663 247.719C431.5 237.763 425.033 235.001 419.2 226.609C416.649 222.938 413.307 216.199 408.717 214.623C401.732 212.226 394.777 213.72 389.058 218.284C387.426 219.586 384.895 222.192 383.53 223.776C383.15 224.218 381.198 226.827 381.584 226.609Z" fill="url(#LinearGradient_5)" fill-rule="nonzero" opacity="1" stroke="none"/>
</g>
<g opacity="1">
<path d="M363.975 301.357C358.029 301.225 353.021 301.563 348.925 302.356C344.829 303.149 340.735 304.401 336.639 306.119C332.543 307.836 329.701 309.223 328.115 310.281C326.53 311.338 324.804 312.792 322.954 314.642C321.105 316.492 319.447 318.623 317.993 321.002C316.54 323.38 315.423 325.749 314.631 328.127C313.838 330.505 313.161 331.96 312.633 332.489C312.104 333.017 310.717 333.863 308.471 335.053C306.225 336.242 300.541 338.17 291.423 340.813C282.306 343.455 277.299 345.113 276.374 345.774C275.449 346.434 274.908 347.551 274.776 349.137C274.644 350.722 274.914 352.312 275.575 353.898C276.235 355.483 276.912 356.6 277.572 357.261C278.233 357.921 278.606 359.106 278.738 360.823C278.87 362.541 279.479 364.605 280.536 366.983C281.593 369.361 283.589 372 286.496 374.907C289.403 377.814 291.568 379.574 293.022 380.235C294.475 380.895 296.641 381.572 299.548 382.232C302.455 382.893 307.901 383.434 315.829 383.831C323.757 384.227 328.765 384.803 330.879 385.595C332.993 386.388 334.651 387.369 335.84 388.559C337.029 389.748 337.807 390.898 338.204 391.955C338.6 393.012 338.668 394.907 338.404 397.682C338.139 400.456 336.312 405.092 332.877 411.566C329.441 418.04 327.039 423.454 325.718 427.814C324.397 432.175 323.618 436.336 323.354 440.3C323.187 442.807 323.298 445.642 323.554 448.624C325.224 450.937 326.013 453.862 325.418 456.881C325.473 456.606 325.495 456.377 325.485 456.215C325.486 456.24 325.499 456.401 325.585 456.715C325.704 457.149 325.873 457.635 326.217 458.613C326.835 460.366 327.029 460.928 327.316 461.942C327.767 463.535 327.976 464.591 328.382 466.97C328.753 469.148 328.898 469.72 329.147 470.133C330.051 471.63 330.43 473.264 330.546 474.894C331.872 477.529 334.064 481.032 337.205 485.482C340.376 489.975 343.218 493.493 345.729 496.004C348.239 498.514 350.979 500.883 353.886 503.129C356.793 505.375 361.665 508.285 368.536 511.852C371.972 513.636 375.422 515.429 378.858 517.213C376.149 516.42 373.409 515.608 370.7 514.816C365.283 513.23 360.208 511.2 355.451 508.689C350.694 506.179 346.33 503.337 342.366 500.166C339.883 498.179 337.717 496.195 335.707 494.206C335.594 496.142 335.158 498.071 333.942 499.766C332.832 501.313 331.329 502.313 329.713 503.062C331.291 504.208 332.837 505.445 334.441 506.492C340.52 510.456 345.798 513.501 350.29 515.615C354.783 517.729 359.147 519.522 363.375 520.975C367.604 522.429 371.833 523.681 376.061 524.738C380.289 525.795 384.992 526.708 390.145 527.501C395.298 528.294 401.963 528.7 410.156 528.7C418.348 528.7 425.013 528.294 430.166 527.501C435.32 526.709 439.887 525.795 443.851 524.738C447.815 523.681 452.89 521.82 459.1 519.177C465.311 516.535 469.302 514.707 471.02 513.65C472.738 512.593 473.719 511.782 473.983 511.253C474.116 510.989 474.251 510.718 474.383 510.454C471.674 511.511 468.968 512.593 466.259 513.65C460.841 515.764 454.954 517.321 448.612 518.378C442.27 519.435 436.451 519.909 431.165 519.777C425.88 519.645 420.737 519.069 415.716 518.012C410.695 516.955 406.06 515.5 401.832 513.65C397.604 511.8 393.983 509.805 390.944 507.69C387.905 505.576 385.198 503.275 382.82 500.765C380.442 498.254 378.243 495.345 376.261 492.041C374.279 488.738 372.756 485.287 371.699 481.72C370.642 478.152 370.067 474.058 369.935 469.434C369.802 464.809 370.378 460.004 371.699 454.983C373.021 449.962 374.678 445.733 376.66 442.298C378.642 438.862 380.638 435.953 382.62 433.574C384.602 431.196 387.884 428.083 392.509 424.252C397.134 420.42 400.855 417.104 403.63 414.329C406.405 411.555 408.3 409.457 409.357 408.003C410.414 406.55 411.428 404.757 412.353 402.643C412.816 401.586 413.256 400.537 413.718 399.48C412.199 400.999 410.676 402.522 409.157 404.041C406.118 407.08 400.975 410.971 393.708 415.728C386.44 420.485 381.603 423.8 379.224 425.65C376.846 427.5 374.41 429.665 371.899 432.176C369.389 434.686 367.02 437.596 364.774 440.899C362.528 444.203 360.87 447.045 359.813 449.423C358.756 451.801 357.977 453.967 357.449 455.949C356.92 457.931 356.582 460.536 356.45 463.707C356.384 465.292 356.316 466.849 356.25 468.435C355.986 467.444 355.715 466.463 355.451 465.472C354.922 463.49 354.787 460.512 355.051 456.548C355.316 452.584 356.365 448.287 358.215 443.663C360.064 439.038 361.925 435.486 363.775 432.975C365.625 430.464 368.196 427.623 371.5 424.451C374.803 421.28 379.776 417.254 386.383 412.365C392.989 407.476 397.659 403.518 400.433 400.478C403.208 397.439 406.05 393.345 408.957 388.192C411.864 383.039 414.401 377.863 416.515 372.71C418.629 367.557 421.269 362.617 424.44 357.86C427.611 353.103 430.588 349.382 433.363 346.739C436.138 344.097 439.082 341.863 442.253 340.014C445.424 338.164 448.401 336.844 451.176 336.051C453.951 335.259 456.928 334.853 460.099 334.853C463.27 334.853 465.842 335.123 467.824 335.652C469.806 336.18 471.734 336.992 473.584 338.049C475.434 339.106 477.43 340.866 479.544 343.376C481.658 345.887 483.553 348.797 485.271 352.1C486.988 355.403 488.849 357.839 490.831 359.425C492.813 361.011 494.979 362.398 497.357 363.587C499.735 364.776 500.852 367.043 500.72 370.346C500.588 373.649 499.809 376.762 498.356 379.669C496.902 382.576 494.906 384.944 492.396 386.794C489.885 388.644 486.4 390.031 481.908 390.956C477.415 391.881 474.573 392.592 473.384 393.12C472.195 393.649 471.214 394.257 470.421 394.918C469.628 395.579 468.884 396.492 468.223 397.682C467.563 398.871 467.224 400.393 467.224 402.243C467.224 404.093 467.427 405.615 467.824 406.805C468.22 407.994 469.946 410.836 472.985 415.328C476.024 419.821 478.257 424.321 479.71 428.813C481.164 433.306 481.975 436.994 482.108 439.9C482.24 442.807 482.172 445.379 481.908 447.625C481.644 449.871 481.17 452.205 480.509 454.584C479.849 456.962 478.935 459.263 477.746 461.509C476.557 463.756 476.016 465.007 476.148 465.272C476.214 465.404 476.281 465.539 476.347 465.671C477.603 464.218 478.855 462.763 480.11 461.31C482.62 458.403 484.346 456.034 485.271 454.184C486.196 452.334 487.109 449.56 488.034 445.86C488.959 442.161 489.365 438.338 489.233 434.373C489.101 430.409 488.762 427.229 488.234 424.851C487.705 422.472 486.657 419.292 485.071 415.328C483.485 411.364 482.707 408.252 482.707 406.006C482.707 403.759 483.079 402 483.872 400.678C484.665 399.357 486.932 397.767 490.631 395.917C494.331 394.067 497.376 391.8 499.754 389.158C502.133 386.515 503.96 383.301 505.281 379.469C506.603 375.637 507.279 372.254 507.279 369.347C507.279 366.44 507.144 364.647 506.88 363.986C506.615 363.326 506.007 362.547 505.082 361.622C504.157 360.698 502.668 359.716 500.553 358.659C498.439 357.602 496.511 356.385 494.793 355.063C493.076 353.742 491.215 351.373 489.233 347.938C487.251 344.502 485.423 341.796 483.706 339.814C481.988 337.832 479.992 336.039 477.746 334.453C475.5 332.868 473.436 331.751 471.586 331.09C469.736 330.43 468.214 326.065 467.025 318.005C466.43 313.975 465.855 309.949 465.26 305.919C464.93 305.985 464.592 306.053 464.261 306.119C463.6 306.251 462.551 307.164 461.098 308.882C459.645 310.6 458.055 313.272 456.337 316.84C454.619 320.407 453.57 323.114 453.174 324.964C452.976 325.889 452.773 326.803 452.574 327.727C452.442 327.661 452.307 327.594 452.175 327.528C451.911 327.396 451.505 325.873 450.976 322.966C450.448 320.059 450.38 316.304 450.776 311.679C451.173 307.054 451.173 304.686 450.776 304.554C450.38 304.422 447.944 306.114 443.451 309.681C438.959 313.249 435.203 316.835 432.164 320.402C429.125 323.97 425.81 328.47 422.242 333.887C418.674 339.305 414.851 345.902 410.755 353.698C406.659 361.494 403.038 367.381 399.867 371.345C396.696 375.309 394.159 377.948 392.309 379.269C390.459 380.59 388.429 381.707 386.183 382.632C383.937 383.557 381.568 384.065 379.058 384.197C376.547 384.329 374.484 384.227 372.898 383.831C371.312 383.434 369.722 382.758 368.137 381.833C366.551 380.908 365.096 379.656 363.775 378.07C362.454 376.485 361.202 374.319 360.013 371.545C358.823 368.77 358.045 366.3 357.649 364.186C357.252 362.072 357.049 358.96 357.049 354.863C357.049 350.767 357.32 347.417 357.848 344.775C358.377 342.132 359.29 339.02 360.612 335.452C361.933 331.884 363.388 328.704 364.974 325.93C365.766 324.542 366.545 323.155 367.338 321.768C367.404 322.032 367.471 322.302 367.537 322.567C367.669 323.095 367.297 325.091 366.372 328.527C365.447 331.962 364.771 335.38 364.374 338.815C363.978 342.25 363.842 346.48 363.975 351.501C364.107 356.522 364.783 360.954 365.972 364.786C367.162 368.617 368.211 371.121 369.136 372.31C370.06 373.5 371.245 374.514 372.698 375.307C374.152 376.1 376.283 376.337 379.058 376.073C381.832 375.808 384.539 374.827 387.182 373.109C389.824 371.392 392.058 369.361 393.907 366.983C395.757 364.605 397.991 360.883 400.633 355.862C403.276 350.841 405.983 346.612 408.757 343.177C411.532 339.741 413.122 337.576 413.519 336.651C413.915 335.726 414.118 334.677 414.118 333.488C414.118 332.298 413.644 330.708 412.72 328.726C411.795 326.744 410.61 324.748 409.157 322.766C407.703 320.784 406.113 318.924 404.396 317.206C402.678 315.488 400.309 313.593 397.27 311.479C394.231 309.365 391.186 307.64 388.147 306.318C385.108 304.997 381.826 303.88 378.259 302.956C374.691 302.031 369.921 301.489 363.975 301.357ZM328.848 330.191C329.475 330.059 330.22 330.093 331.079 330.291C332.796 330.688 334.183 331.432 335.241 332.489C335.769 333.017 336.31 333.525 336.839 334.054C334.989 334.45 333.128 334.856 331.278 335.252C329.429 335.649 327.568 336.054 325.718 336.451C325.784 335.79 325.852 335.114 325.918 334.453C326.05 333.132 326.523 332.015 327.316 331.09C327.713 330.628 328.22 330.323 328.848 330.191ZM474.183 352.899C472.466 352.767 470.537 353.41 468.423 354.863C466.309 356.317 465.26 357.264 465.26 357.66C465.26 358.057 467.899 358.53 473.184 359.059C475.827 359.323 478.466 359.56 481.109 359.824C480.911 359.296 480.708 358.788 480.509 358.26C480.113 357.203 479.402 356.053 478.345 354.863C477.288 353.674 475.901 353.031 474.183 352.899ZM516.802 382.432C516.802 384.877 516.802 387.313 516.802 389.757C516.802 394.646 516.599 398.605 516.202 401.644C515.806 404.683 515.062 408.472 514.005 412.964C512.948 417.457 511.831 421.348 510.642 424.651C509.453 427.954 507.93 431.507 506.08 435.339C504.231 439.171 502.2 442.892 499.954 446.46C497.708 450.027 495.441 453.242 493.195 456.149C490.949 459.056 488.242 462.168 485.071 465.472C481.9 468.775 477.298 472.734 471.22 477.358C465.142 481.983 460.169 485.366 456.337 487.48C452.505 489.594 448.885 491.387 445.449 492.841C442.014 494.294 436.77 495.986 429.767 497.968C422.764 499.95 415.32 501.27 407.392 501.93C403.428 502.261 399.47 502.599 395.506 502.929C397.289 503.788 399.049 504.667 400.833 505.526C404.401 507.244 408.697 508.733 413.718 510.054C418.739 511.376 422.901 512.255 426.204 512.651C429.508 513.048 434.075 513.116 439.889 512.851C445.703 512.587 450.54 512.046 454.372 511.253C458.204 510.46 462.4 509.208 467.025 507.491C471.649 505.773 476.149 503.675 480.509 501.164C484.87 498.654 489.031 495.744 492.995 492.441C496.959 489.138 500.545 485.619 503.716 481.92C506.888 478.22 509.527 474.667 511.641 471.232C513.755 467.796 515.853 463.567 517.967 458.546C520.081 453.525 521.604 449.093 522.529 445.261C523.453 441.429 524.198 437.2 524.726 432.575C525.255 427.951 525.39 422.673 525.126 416.727C524.861 410.781 524.185 405.3 523.128 400.279C522.071 395.258 521.09 391.401 520.165 388.758C519.24 386.116 518.563 384.424 518.167 383.631C517.77 382.838 517.465 382.432 517.201 382.432C517.069 382.432 516.934 382.432 516.802 382.432ZM287.661 388.359C287.397 388.887 287.16 389.428 286.895 389.957C286.367 391.014 285.623 393.924 284.698 398.68C283.773 403.437 283.299 409.392 283.299 416.527C283.299 423.662 283.976 430.395 285.297 436.737C286.618 443.08 288.479 449.169 290.857 454.983C293.212 460.74 295.561 465.558 297.916 469.5C296.518 465.122 295.265 460.628 294.287 455.849C294.089 454.883 293.307 451.913 293.221 451.587C291.817 446.224 291.302 443.652 291.124 440C291.107 439.656 291.108 439.648 291.091 439.301C290.903 435.49 290.831 433.866 290.824 431.676C290.815 428.69 290.972 425.973 291.324 423.286C291.325 423.19 291.323 422.092 291.324 421.821C291.325 420.535 291.507 419.442 291.69 418.325C291.314 416.964 290.747 415.381 290.458 414.13C289.665 410.694 288.989 405.551 288.46 398.68C288.196 395.245 287.925 391.794 287.661 388.359Z" fill="#99ed36" fill-rule="nonzero" opacity="1" stroke="none"/>
<path d="M363.975 301.357C358.029 301.225 353.021 301.563 348.925 302.356C344.829 303.149 340.735 304.401 336.639 306.119C332.543 307.836 329.701 309.223 328.115 310.281C326.53 311.338 324.804 312.792 322.954 314.642C321.105 316.492 319.447 318.623 317.993 321.002C316.54 323.38 315.423 325.749 314.631 328.127C313.838 330.505 313.161 331.96 312.633 332.489C312.104 333.017 310.717 333.863 308.471 335.053C306.225 336.242 300.54 338.17 291.423 340.813C282.306 343.455 277.299 345.113 276.374 345.774C275.449 346.434 274.908 347.551 274.776 349.137C274.644 350.722 274.914 352.312 275.575 353.898C276.235 355.483 276.912 356.6 277.572 357.261C278.233 357.921 278.606 359.106 278.738 360.823C278.87 362.541 279.479 364.604 280.536 366.983C281.593 369.361 283.589 372 286.496 374.907C289.403 377.814 291.568 379.574 293.022 380.235C294.475 380.895 296.641 381.572 299.548 382.232C302.455 382.893 307.901 383.435 315.829 383.831C323.757 384.227 328.765 384.803 330.879 385.595C332.993 386.388 334.651 387.369 335.84 388.559C337.029 389.748 337.807 390.898 338.204 391.955C338.6 393.012 338.668 394.906 338.404 397.682C338.139 400.456 336.312 405.092 332.877 411.566C329.441 418.04 327.039 423.454 325.718 427.814C324.397 432.175 323.618 436.336 323.354 440.3C323.09 444.264 323.36 448.832 324.153 453.985C324.946 459.138 325.86 463.231 326.917 466.271C327.974 469.31 329.158 472.152 330.479 474.794C331.801 477.437 334.034 480.99 337.205 485.482C340.376 489.975 343.218 493.493 345.729 496.004C348.239 498.514 350.978 500.882 353.886 503.129C356.793 505.375 361.665 508.285 368.536 511.852C371.972 513.636 375.422 515.429 378.858 517.213C376.149 516.42 373.409 515.608 370.7 514.816C365.283 513.23 360.207 511.199 355.451 508.689C350.694 506.179 346.329 503.337 342.366 500.166C338.402 496.994 335.052 493.815 332.277 490.643C329.502 487.472 326.17 483.412 322.082 477.877C317.993 472.341 317.423 472.01 312.528 464.04C307.633 456.07 307.204 455.593 302.501 445.995C297.798 436.398 295.274 429.878 293.821 425.65C292.367 421.422 291.251 417.565 290.458 414.13C289.665 410.694 288.988 405.551 288.46 398.68C288.196 395.245 287.925 391.794 287.661 388.359C287.397 388.887 287.16 389.428 286.895 389.957C286.367 391.014 285.623 393.923 284.698 398.68C283.773 403.437 283.299 409.392 283.299 416.527C283.299 423.662 283.976 430.395 285.297 436.737C286.618 443.08 288.479 449.169 290.857 454.983C293.236 460.797 295.604 465.669 297.983 469.633C300.361 473.597 302.662 477.049 304.908 479.955C307.154 482.862 311.113 487.024 316.795 492.441C322.476 497.858 328.363 502.529 334.441 506.492C340.52 510.456 345.798 513.502 350.29 515.615C354.783 517.729 359.147 519.522 363.375 520.975C367.604 522.429 371.833 523.681 376.061 524.738C380.289 525.795 384.992 526.708 390.145 527.501C395.298 528.294 401.963 528.7 410.156 528.7C418.348 528.7 425.013 528.294 430.166 527.501C435.32 526.709 439.886 525.795 443.851 524.738C447.815 523.681 452.891 521.821 459.1 519.177C465.311 516.535 469.303 514.707 471.02 513.65C472.738 512.593 473.719 511.782 473.983 511.253C474.116 510.989 474.252 510.718 474.383 510.454C471.674 511.511 468.967 512.593 466.259 513.65C460.841 515.764 454.954 517.322 448.612 518.378C442.27 519.435 436.452 519.908 431.165 519.777C425.88 519.645 420.737 519.069 415.716 518.012C410.695 516.955 406.06 515.501 401.832 513.65C397.604 511.8 393.983 509.805 390.944 507.69C387.905 505.576 385.198 503.275 382.82 500.765C380.935 498.775 375.179 493.565 368.536 485.482C361.894 477.4 360.825 475.162 360.825 475.162C360.825 475.162 357.52 470.418 356.354 466.271C355.189 462.123 354.788 460.512 355.051 456.548C355.316 452.584 356.365 448.286 358.215 443.663C360.064 439.038 361.925 435.486 363.775 432.975C365.625 430.464 368.196 427.623 371.5 424.451C374.803 421.28 380.017 417.563 386.383 412.365C388.147 410.924 390.553 410.075 393.907 406.346C397.262 402.617 398.927 399.43 399.801 397.449C400.677 395.462 401.491 393.632 402.897 390.49C406.939 381.457 408.321 375.431 408.321 375.431C408.321 375.431 410.163 369.919 411.188 363.753C412.213 357.588 413.738 348.101 413.738 348.101C413.738 348.101 411.34 352.584 410.755 353.698C406.659 361.494 403.038 367.381 399.867 371.345C396.696 375.309 394.16 377.949 392.309 379.269C390.459 380.59 388.429 381.708 386.183 382.632C383.937 383.557 381.568 384.065 379.058 384.197C376.547 384.329 374.484 384.228 372.898 383.831C371.312 383.434 369.721 382.758 368.137 381.833C366.551 380.908 365.096 379.656 363.775 378.07C362.454 376.485 361.201 374.318 360.013 371.545C358.823 368.77 358.045 366.3 357.649 364.186C357.252 362.072 357.049 358.96 357.049 354.863C357.049 350.767 357.32 347.417 357.848 344.775C358.377 342.132 359.29 339.02 360.612 335.452C361.933 331.884 363.388 328.704 364.974 325.93C365.766 324.542 366.545 323.155 367.338 321.768C367.404 322.032 367.472 322.302 367.537 322.567C367.669 323.095 367.298 325.091 366.372 328.527C365.447 331.962 364.77 335.38 364.374 338.815C363.978 342.25 363.842 346.48 363.975 351.501C364.107 356.522 364.784 360.953 365.972 364.786C367.162 368.617 368.21 371.121 369.136 372.31C370.06 373.5 371.245 374.514 372.698 375.307C374.152 376.1 376.283 376.337 379.058 376.073C381.832 375.808 384.54 374.827 387.182 373.109C389.824 371.392 392.058 369.362 393.907 366.983C395.757 364.605 397.991 360.884 400.633 355.862C403.276 350.841 405.983 346.612 408.757 343.177C411.532 339.741 413.123 337.575 413.519 336.651C413.915 335.726 414.118 334.677 414.118 333.488C414.118 332.298 413.644 330.708 412.72 328.726C411.795 326.744 410.61 324.748 409.157 322.766C407.703 320.784 406.113 318.923 404.396 317.206C402.678 315.488 400.31 313.594 397.27 311.479C394.231 309.365 391.186 307.639 388.147 306.318C385.108 304.997 381.826 303.88 378.259 302.956C374.691 302.031 369.921 301.489 363.975 301.357ZM328.848 330.191C329.475 330.059 330.22 330.093 331.079 330.291C332.796 330.688 334.183 331.431 335.241 332.489C335.769 333.017 336.31 333.525 336.839 334.054C334.989 334.45 333.128 334.856 331.278 335.252C329.429 335.649 327.568 336.054 325.718 336.451C325.784 335.79 325.852 335.114 325.918 334.453C326.05 333.132 326.523 332.015 327.316 331.09C327.713 330.628 328.22 330.323 328.848 330.191ZM476.68 464.04C476.58 464.34 476.105 465.184 476.148 465.272C476.214 465.404 476.282 465.54 476.347 465.671C476.646 465.326 476.949 464.985 477.246 464.639C476.94 464.328 476.924 464.288 476.68 464.04Z" fill="#ff7e27" fill-rule="nonzero" opacity="1" stroke="none"/>
</g>
<g opacity="1">
<path d="M599.783 629.515C596.235 629.346 593.278 629.939 590.913 631.293C587.759 633.099 585.482 635.207 584.08 637.615C582.679 640.023 580.729 644.501 580.992 651.161C581.255 657.822 583.029 662.149 585.131 664.256C587.234 666.364 590.037 667.417 593.541 667.417C597.045 667.417 599.848 666.665 601.951 665.159C603.002 664.407 604.053 663.655 605.104 662.902C605.805 663.955 606.506 665.009 607.207 666.063C608.609 668.17 610.361 669.224 612.463 669.223C614.565 669.223 615.792 668.17 616.142 666.063C616.493 663.955 615.967 662.751 614.565 662.45C613.164 662.149 612.113 661.246 611.412 659.741C610.711 658.236 610.536 653.118 610.886 644.388C611.237 635.658 608.784 630.842 603.528 629.938C602.214 629.713 600.965 629.572 599.783 629.515ZM599.323 636.26C601.075 636.561 601.951 639.12 601.951 643.937C601.951 648.753 601.6 652.366 600.9 654.774C600.199 657.182 598.797 658.838 596.695 659.741C594.592 660.644 592.84 660.193 591.439 658.386C590.037 656.58 589.336 654.623 589.336 652.516C589.336 650.409 589.687 648.001 590.387 645.291C591.088 642.582 592.315 640.324 594.067 638.518C595.819 636.712 597.571 635.959 599.323 636.26Z" fill="#141414" fill-rule="nonzero" opacity="1" stroke="none"/>
<path d="M184.431 638.66C184.431 638.66 184.367 637.815 185.008 636.569C185.649 635.322 186.635 634.256 187.968 633.37C189.147 632.615 190.48 631.992 191.966 631.5C193.452 631.007 195.169 630.761 197.117 630.761C199.423 630.761 201.41 631.016 203.075 631.524C204.741 632.033 206.112 632.713 207.189 633.567C208.316 634.42 209.136 635.437 209.649 636.618C210.161 637.799 210.418 639.046 210.418 640.358C210.418 641.014 210.392 641.679 210.341 642.351C210.289 643.024 210.097 643.696 209.764 644.369C209.431 645.042 208.893 645.673 208.15 646.264C207.406 646.854 206.343 647.396 204.959 647.888C206.343 648.249 207.406 648.716 208.15 649.29C208.893 649.865 209.431 650.504 209.764 651.21C210.097 651.915 210.289 652.686 210.341 653.523C210.392 654.36 210.418 655.221 210.418 656.107C210.418 657.583 210.174 658.961 209.687 660.241C209.2 661.52 208.393 662.587 207.265 663.44C206.138 664.293 204.715 664.998 202.998 665.556C201.281 666.114 199.167 666.392 196.656 666.392C194.759 666.392 192.991 666.179 191.351 665.753C189.711 665.326 188.301 664.736 187.122 663.981C185.943 663.226 185.047 662.258 184.431 661.077C183.816 659.896 183.048 656.537 185.008 656.205C186.969 655.873 188.259 655.897 189.864 656.241C191.469 656.586 191.428 657.583 191.428 657.583C191.428 658.042 191.517 658.494 191.697 658.936C191.876 659.379 192.171 659.781 192.581 660.142C192.991 660.503 193.529 660.798 194.195 661.028C194.862 661.258 195.707 661.373 196.733 661.373C199.039 661.373 200.589 660.905 201.384 659.97C202.178 659.035 202.576 657.764 202.576 656.156C202.576 655.237 202.524 654.376 202.422 653.572C202.319 652.768 202.063 652.137 201.653 651.677C200.73 650.66 199.193 650.152 197.04 650.152C197.04 650.152 194.912 650.417 194.107 649.52C193.303 648.623 193.015 647.672 193.822 646.565C194.63 645.457 197.271 645.722 197.271 645.722C198.245 645.722 199.116 645.608 199.885 645.378C200.654 645.148 201.269 644.755 201.73 644.197C202.14 643.672 202.383 643.048 202.46 642.327C202.537 641.605 202.576 640.965 202.576 640.407C202.576 639.817 202.499 639.234 202.345 638.66C202.191 638.086 201.909 637.586 201.499 637.159C201.089 636.765 200.538 636.437 199.846 636.175C199.154 635.912 198.27 635.781 197.194 635.781C196.22 635.781 195.413 635.896 194.772 636.126C194.131 636.355 193.606 636.651 193.196 637.012C192.735 637.405 192.402 637.914 192.197 638.537C191.992 639.161 192.197 640.665 189.997 641.146C187.797 641.626 185.583 641.158 184.864 640.665C184.145 640.172 184.431 638.66 184.431 638.66Z" fill="#141414" fill-rule="nonzero" opacity="1" stroke="#141414" stroke-linecap="butt" stroke-linejoin="round" stroke-width="0.738803"/>
<path d="M215.647 642.517C215.647 641.078 215.782 639.754 216.05 638.547C216.319 637.34 216.823 636.272 217.562 635.344C218.771 633.812 220.501 632.581 222.751 631.653C225.001 630.724 227.739 630.26 230.963 630.26C234.187 630.26 236.925 630.724 239.175 631.653C241.425 632.581 243.155 633.812 244.364 635.344C245.103 636.272 245.607 637.34 245.875 638.547C246.144 639.754 246.278 641.078 246.278 642.517L246.278 654.147C246.278 655.586 246.144 656.91 245.875 658.117C245.607 659.324 245.103 660.392 244.364 661.32C243.155 662.852 241.425 664.083 239.175 665.011C236.925 665.94 234.187 666.404 230.963 666.404C227.739 666.404 225.001 665.94 222.751 665.011C220.501 664.083 218.771 662.852 217.562 661.32C216.823 660.392 216.319 659.324 216.05 658.117C215.782 656.91 215.647 655.586 215.647 654.147L215.647 642.517ZM225.925 655.261C225.925 656.608 226.378 657.618 227.285 658.291C228.192 658.964 229.418 659.301 230.963 659.301C232.508 659.301 233.734 658.964 234.641 658.291C235.548 657.618 236.001 656.608 236.001 655.261L236.001 641.403C236.001 640.056 235.548 639.046 234.641 638.373C233.734 637.7 232.508 637.363 230.963 637.363C229.418 637.363 228.192 637.7 227.285 638.373C226.378 639.046 225.925 640.056 225.925 641.403L225.925 655.261Z" fill="#141414" fill-rule="nonzero" opacity="1" stroke="none"/>
<path d="M252.929 642.517C252.929 641.078 253.063 639.754 253.332 638.547C253.6 637.34 254.104 636.272 254.843 635.344C256.052 633.812 257.782 632.581 260.032 631.653C262.283 630.724 265.02 630.26 268.244 630.26C271.469 630.26 274.206 630.724 276.456 631.653C278.707 632.581 280.436 633.812 281.645 635.344C282.384 636.272 282.888 637.34 283.157 638.547C283.425 639.754 283.56 641.078 283.56 642.517L283.56 654.147C283.56 655.586 283.425 656.91 283.157 658.117C282.888 659.324 282.384 660.392 281.645 661.32C280.436 662.852 278.707 664.083 276.456 665.011C274.206 665.94 271.469 666.404 268.244 666.404C265.02 666.404 262.283 665.94 260.032 665.011C257.782 664.083 256.052 662.852 254.843 661.32C254.104 660.392 253.6 659.324 253.332 658.117C253.063 656.91 252.929 655.586 252.929 654.147L252.929 642.517ZM263.206 655.261C263.206 656.608 263.66 657.618 264.567 658.291C265.473 658.964 266.699 659.301 268.244 659.301C269.789 659.301 271.015 658.964 271.922 658.291C272.829 657.618 273.282 656.608 273.282 655.261L273.282 641.403C273.282 640.056 272.829 639.046 271.922 638.373C271.015 637.7 269.789 637.363 268.244 637.363C266.699 637.363 265.473 637.7 264.567 638.373C263.66 639.046 263.206 640.056 263.206 641.403L263.206 655.261Z" fill="#141414" fill-rule="nonzero" opacity="1" stroke="none"/>
<path d="M290.199 662.895C290.035 659.864 288.568 632.109 290.167 630.64C291.766 629.172 308.938 628.574 312.16 629.487C315.381 630.4 315.73 636.316 312.16 636.905C308.59 637.494 300.963 635.85 300.963 638.294C300.963 640.739 302.108 659.192 301.102 662.83C300.096 666.469 290.362 665.925 290.199 662.895Z" fill="#141414" fill-rule="nonzero" opacity="1" stroke="none"/>
<path d="M317.818 642.517C317.818 641.078 317.953 639.754 318.221 638.547C318.49 637.34 318.994 636.272 319.733 635.344C320.942 633.812 322.672 632.581 324.922 631.653C327.172 630.724 329.91 630.26 333.134 630.26C336.358 630.26 339.096 630.724 341.346 631.653C343.596 632.581 345.326 633.812 346.535 635.344C347.274 636.272 347.778 637.34 348.046 638.547C348.315 639.754 348.45 641.078 348.45 642.517L348.45 654.147C348.45 655.586 348.315 656.91 348.046 658.117C347.778 659.324 347.274 660.392 346.535 661.32C345.326 662.852 343.596 664.083 341.346 665.011C339.096 665.94 336.358 666.404 333.134 666.404C329.91 666.404 327.172 665.94 324.922 665.011C322.672 664.083 320.942 662.852 319.733 661.32C318.994 660.392 318.49 659.324 318.221 658.117C317.953 656.91 317.818 655.586 317.818 654.147L317.818 642.517ZM328.096 655.261C328.096 656.608 328.549 657.618 329.456 658.291C330.363 658.964 331.589 659.301 333.134 659.301C334.679 659.301 335.905 658.964 336.812 658.291C337.719 657.618 338.172 656.608 338.172 655.261L338.172 641.403C338.172 640.056 337.719 639.046 336.812 638.373C335.905 637.7 334.679 637.363 333.134 637.363C331.589 637.363 330.363 637.7 329.456 638.373C328.549 639.046 328.096 642.66 328.096 644.007L328.096 655.261Z" fill="#141414" fill-rule="nonzero" opacity="1" stroke="none"/>
<path d="M366.889 655.819C366.889 656.933 367.342 657.792 368.249 658.395C369.156 658.999 370.382 659.301 371.927 659.301C373.875 659.301 376.682 659.294 378.275 656.72C379.867 654.147 384.35 655.083 385.559 656.72C386.768 658.358 385.865 661.367 383.111 663.27C381.768 664.245 380.155 665.011 378.275 665.568C376.394 666.126 374.278 666.404 371.927 666.404C368.702 666.404 365.965 665.94 363.715 665.011C361.464 664.083 359.735 662.852 358.526 661.32C357.787 660.392 357.283 659.324 357.014 658.117C356.745 656.91 356.611 655.586 356.611 654.147L356.611 642.517C356.611 641.078 356.745 639.754 357.014 638.547C357.283 637.34 357.787 636.272 358.526 635.344C359.735 633.812 361.464 632.581 363.715 631.653C365.965 630.724 368.702 630.26 371.927 630.26C374.278 630.26 376.411 630.539 378.325 631.096C380.239 631.653 381.868 632.419 383.212 633.394C385.899 635.483 385.886 638.66 385.559 640.146C385.231 641.631 380.246 642.517 378.325 641.194C376.404 639.871 376.511 639.046 375.604 638.373C374.698 637.7 373.472 637.363 371.927 637.363C370.382 637.363 369.156 637.7 368.249 638.373C367.342 639.046 366.889 640.056 366.889 641.403L366.889 655.819Z" fill="#141414" fill-rule="nonzero" opacity="1" stroke="none"/>
<path d="M399.286 664.032C397.274 661.637 399.99 637.703 398.729 636.659C397.468 635.615 390.129 637.301 388.653 636.659C387.176 636.017 386.5 631.496 388.653 630.652C390.806 629.807 417.203 629.886 419.083 630.652C420.962 631.417 420.421 636.051 419.083 636.659C417.744 637.267 409.768 635.882 409.007 636.659C408.245 637.436 410.417 662.046 409.007 664.032C407.596 666.018 401.298 666.427 399.286 664.032Z" fill="#141414" fill-rule="nonzero" opacity="1" stroke="none"/>
<path d="M445.381 665.986C444.064 663.495 445.381 644.802 445.381 643.562C445.381 642.322 444.897 643.638 444.474 644.315C444.051 644.992 434.959 664.839 433.794 665.986C432.629 667.134 424.024 667.428 423.315 665.986C422.605 664.545 421.071 634.571 423.315 631.717C425.558 628.863 432.181 630.08 432.988 631.717C433.794 633.354 432.988 651.814 432.988 653.103C432.988 654.391 434.29 651.559 434.29 651.559C435.034 650.251 443.567 632.144 444.474 630.678C445.381 629.212 453.604 629.639 455.054 630.678C456.504 631.717 456.615 664.75 455.054 665.986C453.494 667.223 446.698 668.478 445.381 665.986Z" fill="#141414" fill-rule="nonzero" opacity="1" stroke="none"/>
<path d="M524.484 665.742C523.168 663.25 524.484 644.557 524.484 643.317C524.484 642.077 524.001 643.393 523.578 644.07C523.155 644.747 514.062 664.594 512.897 665.742C511.732 666.889 503.127 667.183 502.418 665.742C501.709 664.3 500.175 634.326 502.418 631.472C504.661 628.618 511.285 629.835 512.091 631.472C512.897 633.109 512.091 651.569 512.091 652.858C512.091 654.146 513.393 651.314 513.393 651.314C514.137 650.006 522.671 631.899 523.578 630.433C524.484 628.967 532.708 629.394 534.157 630.433C535.607 631.472 535.718 664.505 534.157 665.742C532.597 666.978 525.801 668.233 524.484 665.742Z" fill="#141414" fill-rule="nonzero" opacity="1" stroke="none"/>
<path d="M463.518 664.91C462.542 662.441 461.968 634.476 463.518 631.244C465.068 628.011 473.066 628.925 473.795 631.244C474.525 633.562 472.131 643.036 473.795 644.016C475.46 644.996 482.386 645.245 484.174 644.016C485.962 642.788 482.598 633.85 484.174 631.244C485.749 628.637 493.788 629.148 494.451 631.244C495.115 633.339 495.059 663.209 494.451 664.91C493.844 666.611 486.081 667.568 484.174 664.91C482.267 662.252 485.218 652.955 484.174 652.154C483.129 651.353 475.46 651.194 473.795 652.154C472.131 653.114 474.766 662.721 473.526 664.91C472.286 667.099 464.494 667.379 463.518 664.91Z" fill="#141414" fill-rule="nonzero" opacity="1" stroke="none"/>
<path d="M543.119 665.986C540.922 663.853 542.368 632.736 542.888 630.678C543.407 628.62 553.396 629.148 553.831 630.668C554.266 632.189 551.02 658.222 553.396 660.067C555.772 661.911 562.026 661.429 563.573 660.067C565.12 658.705 562.33 631.869 563.573 630.678C564.816 629.487 572.482 629.324 573.851 630.678C575.219 632.031 573.114 658.755 573.851 660.067C574.587 661.378 578.709 660.391 579.758 662.344C580.807 664.297 581.075 671.088 579.758 672.45C578.441 673.813 572.744 673.755 570.888 672.45C569.033 671.145 572.67 666.587 570.888 665.986C569.107 665.386 545.315 668.12 543.119 665.986Z" fill="#141414" fill-rule="nonzero" opacity="1" stroke="none"/>
</g>
</g>
</svg>
